<mxfile host="app.diagrams.net" agent="Mozilla/5.0 (Windows NT 10.0; Win64; x64) AppleWebKit/537.36 (KHTML, like Gecko) Chrome/132.0.0.0 Safari/537.36" version="26.0.6">
  <diagram name="Page-1" id="g4jFMcm0eVery6ui0c0K">
    <mxGraphModel dx="2514" dy="1354" grid="1" gridSize="10" guides="1" tooltips="1" connect="1" arrows="1" fold="1" page="1" pageScale="1" pageWidth="850" pageHeight="1100" math="0" shadow="0">
      <root>
        <mxCell id="0" />
        <mxCell id="1" parent="0" />
        <mxCell id="QGnAQyisiJ7Ppkhib9Jt-1" style="rounded=0;orthogonalLoop=1;jettySize=auto;html=1;exitX=0.75;exitY=1;exitDx=0;exitDy=0;entryX=0;entryY=0;entryDx=0;entryDy=0;endArrow=none;endFill=0;" edge="1" parent="1" source="QGnAQyisiJ7Ppkhib9Jt-3" target="QGnAQyisiJ7Ppkhib9Jt-78">
          <mxGeometry relative="1" as="geometry" />
        </mxCell>
        <mxCell id="QGnAQyisiJ7Ppkhib9Jt-2" style="rounded=0;orthogonalLoop=1;jettySize=auto;html=1;exitX=0.5;exitY=1;exitDx=0;exitDy=0;endArrow=none;endFill=0;" edge="1" parent="1" source="QGnAQyisiJ7Ppkhib9Jt-3" target="QGnAQyisiJ7Ppkhib9Jt-75">
          <mxGeometry relative="1" as="geometry" />
        </mxCell>
        <mxCell id="QGnAQyisiJ7Ppkhib9Jt-3" value="&lt;div style=&quot;font-size: 14px;&quot;&gt;&lt;font style=&quot;font-size: 14px;&quot;&gt;patient&lt;/font&gt;&lt;/div&gt;" style="rounded=0;whiteSpace=wrap;html=1;fontSize=14;" vertex="1" parent="1">
          <mxGeometry x="90.37" y="725" width="90" height="40" as="geometry" />
        </mxCell>
        <mxCell id="QGnAQyisiJ7Ppkhib9Jt-4" style="edgeStyle=orthogonalEdgeStyle;rounded=0;orthogonalLoop=1;jettySize=auto;html=1;exitX=0.5;exitY=1;exitDx=0;exitDy=0;endArrow=none;endFill=0;" edge="1" parent="1" source="QGnAQyisiJ7Ppkhib9Jt-5" target="QGnAQyisiJ7Ppkhib9Jt-7">
          <mxGeometry relative="1" as="geometry" />
        </mxCell>
        <mxCell id="QGnAQyisiJ7Ppkhib9Jt-5" value="&lt;div style=&quot;font-size: 14px;&quot;&gt;&lt;font style=&quot;font-size: 14px;&quot;&gt;agent&lt;/font&gt;&lt;/div&gt;" style="rounded=0;whiteSpace=wrap;html=1;fontSize=14;" vertex="1" parent="1">
          <mxGeometry x="89.62" y="515" width="90" height="40" as="geometry" />
        </mxCell>
        <mxCell id="QGnAQyisiJ7Ppkhib9Jt-6" style="edgeStyle=orthogonalEdgeStyle;rounded=0;orthogonalLoop=1;jettySize=auto;html=1;exitX=0.5;exitY=1;exitDx=0;exitDy=0;entryX=0.5;entryY=0;entryDx=0;entryDy=0;endArrow=none;endFill=0;" edge="1" parent="1" source="QGnAQyisiJ7Ppkhib9Jt-7" target="QGnAQyisiJ7Ppkhib9Jt-3">
          <mxGeometry relative="1" as="geometry" />
        </mxCell>
        <mxCell id="QGnAQyisiJ7Ppkhib9Jt-7" value="&lt;font style=&quot;font-size: 14px;&quot;&gt;care&lt;/font&gt;" style="rhombus;whiteSpace=wrap;html=1;fontSize=14;" vertex="1" parent="1">
          <mxGeometry x="95.37" y="605" width="80" height="40" as="geometry" />
        </mxCell>
        <mxCell id="QGnAQyisiJ7Ppkhib9Jt-8" value="&lt;div style=&quot;font-size: 14px;&quot;&gt;&lt;font style=&quot;font-size: 14px;&quot;&gt;equipment&lt;/font&gt;&lt;/div&gt;" style="rounded=0;whiteSpace=wrap;html=1;fontSize=14;" vertex="1" parent="1">
          <mxGeometry x="472.37" y="515" width="90" height="40" as="geometry" />
        </mxCell>
        <mxCell id="QGnAQyisiJ7Ppkhib9Jt-9" style="edgeStyle=orthogonalEdgeStyle;rounded=0;orthogonalLoop=1;jettySize=auto;html=1;exitX=0.5;exitY=0;exitDx=0;exitDy=0;endArrow=none;endFill=0;" edge="1" parent="1" source="QGnAQyisiJ7Ppkhib9Jt-10" target="QGnAQyisiJ7Ppkhib9Jt-110">
          <mxGeometry relative="1" as="geometry" />
        </mxCell>
        <mxCell id="QGnAQyisiJ7Ppkhib9Jt-10" value="borrowlist" style="rhombus;whiteSpace=wrap;html=1;fontSize=14;" vertex="1" parent="1">
          <mxGeometry x="337.87" y="515" width="97" height="40" as="geometry" />
        </mxCell>
        <mxCell id="QGnAQyisiJ7Ppkhib9Jt-11" value="" style="endArrow=none;html=1;rounded=0;exitX=1;exitY=0.5;exitDx=0;exitDy=0;endFill=0;entryX=0;entryY=0.5;entryDx=0;entryDy=0;fontSize=14;" edge="1" parent="1" source="QGnAQyisiJ7Ppkhib9Jt-5" target="QGnAQyisiJ7Ppkhib9Jt-10">
          <mxGeometry width="50" height="50" relative="1" as="geometry">
            <mxPoint x="554.87" y="545" as="sourcePoint" />
            <mxPoint x="326.87" y="535" as="targetPoint" />
          </mxGeometry>
        </mxCell>
        <mxCell id="QGnAQyisiJ7Ppkhib9Jt-12" value="" style="endArrow=none;html=1;rounded=0;exitX=1;exitY=0.5;exitDx=0;exitDy=0;entryX=0;entryY=0.5;entryDx=0;entryDy=0;fontSize=14;" edge="1" parent="1" source="QGnAQyisiJ7Ppkhib9Jt-10" target="QGnAQyisiJ7Ppkhib9Jt-8">
          <mxGeometry width="50" height="50" relative="1" as="geometry">
            <mxPoint x="484.87" y="545" as="sourcePoint" />
            <mxPoint x="534.87" y="495" as="targetPoint" />
          </mxGeometry>
        </mxCell>
        <mxCell id="QGnAQyisiJ7Ppkhib9Jt-13" value="&lt;font style=&quot;font-size: 14px;&quot;&gt;have&lt;/font&gt;" style="rhombus;whiteSpace=wrap;html=1;fontSize=14;" vertex="1" parent="1">
          <mxGeometry x="605.8700000000001" y="515" width="80" height="40" as="geometry" />
        </mxCell>
        <mxCell id="QGnAQyisiJ7Ppkhib9Jt-14" value="&lt;font style=&quot;font-size: 14px;&quot;&gt;Type&lt;/font&gt;" style="rounded=0;whiteSpace=wrap;html=1;fontSize=14;" vertex="1" parent="1">
          <mxGeometry x="705.87" y="515" width="90" height="40" as="geometry" />
        </mxCell>
        <mxCell id="QGnAQyisiJ7Ppkhib9Jt-15" value="" style="endArrow=none;html=1;rounded=0;exitX=1;exitY=0.5;exitDx=0;exitDy=0;entryX=0;entryY=0.5;entryDx=0;entryDy=0;fontSize=14;" edge="1" parent="1" source="QGnAQyisiJ7Ppkhib9Jt-8" target="QGnAQyisiJ7Ppkhib9Jt-13">
          <mxGeometry width="50" height="50" relative="1" as="geometry">
            <mxPoint x="854.87" y="615" as="sourcePoint" />
            <mxPoint x="904.87" y="565" as="targetPoint" />
          </mxGeometry>
        </mxCell>
        <mxCell id="QGnAQyisiJ7Ppkhib9Jt-16" value="&lt;font style=&quot;font-size: 14px;&quot;&gt;Status&lt;/font&gt;" style="rounded=0;whiteSpace=wrap;html=1;fontSize=14;" vertex="1" parent="1">
          <mxGeometry x="623.4200000000001" y="715" width="90" height="40" as="geometry" />
        </mxCell>
        <mxCell id="QGnAQyisiJ7Ppkhib9Jt-17" value="&lt;div style=&quot;font-size: 14px;&quot;&gt;&lt;font style=&quot;font-size: 14px;&quot;&gt;history&lt;/font&gt;&lt;/div&gt;" style="rounded=0;whiteSpace=wrap;html=1;fontSize=14;" vertex="1" parent="1">
          <mxGeometry x="421.51" y="970" width="90" height="40" as="geometry" />
        </mxCell>
        <mxCell id="QGnAQyisiJ7Ppkhib9Jt-18" value="" style="endArrow=none;html=1;rounded=0;entryX=0;entryY=0.5;entryDx=0;entryDy=0;exitX=1;exitY=0.5;exitDx=0;exitDy=0;fontSize=14;" edge="1" parent="1" source="QGnAQyisiJ7Ppkhib9Jt-13" target="QGnAQyisiJ7Ppkhib9Jt-14">
          <mxGeometry width="50" height="50" relative="1" as="geometry">
            <mxPoint x="692.87" y="532.5" as="sourcePoint" />
            <mxPoint x="732.87" y="602.5" as="targetPoint" />
          </mxGeometry>
        </mxCell>
        <mxCell id="QGnAQyisiJ7Ppkhib9Jt-19" value="M" style="text;html=1;align=center;verticalAlign=middle;whiteSpace=wrap;rounded=0;fontSize=14;" vertex="1" parent="1">
          <mxGeometry x="134.87" y="665" width="20" height="25" as="geometry" />
        </mxCell>
        <mxCell id="QGnAQyisiJ7Ppkhib9Jt-20" value="1" style="text;html=1;align=center;verticalAlign=middle;whiteSpace=wrap;rounded=0;fontSize=14;" vertex="1" parent="1">
          <mxGeometry x="134.87" y="570" width="20" height="20" as="geometry" />
        </mxCell>
        <mxCell id="QGnAQyisiJ7Ppkhib9Jt-21" value="M" style="text;html=1;align=center;verticalAlign=middle;whiteSpace=wrap;rounded=0;fontSize=14;" vertex="1" parent="1">
          <mxGeometry x="188.87" y="535" width="20" height="20" as="geometry" />
        </mxCell>
        <mxCell id="QGnAQyisiJ7Ppkhib9Jt-22" value="N" style="text;html=1;align=center;verticalAlign=middle;whiteSpace=wrap;rounded=0;fontSize=14;" vertex="1" parent="1">
          <mxGeometry x="439.87" y="535" width="20" height="20" as="geometry" />
        </mxCell>
        <mxCell id="QGnAQyisiJ7Ppkhib9Jt-23" value="M" style="text;html=1;align=center;verticalAlign=middle;whiteSpace=wrap;rounded=0;fontSize=14;fontColor=#0000CC;" vertex="1" parent="1">
          <mxGeometry x="408" y="180" width="20" height="20" as="geometry" />
        </mxCell>
        <mxCell id="QGnAQyisiJ7Ppkhib9Jt-24" value="M" style="text;html=1;align=center;verticalAlign=middle;whiteSpace=wrap;rounded=0;fontSize=14;" vertex="1" parent="1">
          <mxGeometry x="572.87" y="512.5" width="20" height="20" as="geometry" />
        </mxCell>
        <mxCell id="QGnAQyisiJ7Ppkhib9Jt-25" value="1" style="text;html=1;align=center;verticalAlign=middle;whiteSpace=wrap;rounded=0;fontSize=14;" vertex="1" parent="1">
          <mxGeometry x="682.87" y="512.5" width="20" height="20" as="geometry" />
        </mxCell>
        <mxCell id="QGnAQyisiJ7Ppkhib9Jt-26" value="" style="endArrow=none;html=1;rounded=0;exitX=0.75;exitY=0;exitDx=0;exitDy=0;entryX=0.5;entryY=1;entryDx=0;entryDy=0;fontSize=14;" edge="1" parent="1" source="QGnAQyisiJ7Ppkhib9Jt-5" target="QGnAQyisiJ7Ppkhib9Jt-48">
          <mxGeometry width="50" height="50" relative="1" as="geometry">
            <mxPoint x="271.87" y="555" as="sourcePoint" />
            <mxPoint x="86.87" y="395" as="targetPoint" />
          </mxGeometry>
        </mxCell>
        <mxCell id="QGnAQyisiJ7Ppkhib9Jt-27" value="" style="endArrow=none;html=1;rounded=0;exitX=0.75;exitY=1;exitDx=0;exitDy=0;entryX=0;entryY=0;entryDx=0;entryDy=0;fontSize=14;" edge="1" parent="1" source="QGnAQyisiJ7Ppkhib9Jt-8" target="QGnAQyisiJ7Ppkhib9Jt-97">
          <mxGeometry width="50" height="50" relative="1" as="geometry">
            <mxPoint x="574.87" y="535" as="sourcePoint" />
            <mxPoint x="477.62" y="490.55000000000007" as="targetPoint" />
          </mxGeometry>
        </mxCell>
        <mxCell id="QGnAQyisiJ7Ppkhib9Jt-28" value="" style="endArrow=none;html=1;rounded=0;exitX=0.25;exitY=0;exitDx=0;exitDy=0;entryX=0.619;entryY=0.984;entryDx=0;entryDy=0;entryPerimeter=0;fontSize=14;" edge="1" parent="1" source="QGnAQyisiJ7Ppkhib9Jt-14" target="QGnAQyisiJ7Ppkhib9Jt-67">
          <mxGeometry width="50" height="50" relative="1" as="geometry">
            <mxPoint x="594.87" y="512.5" as="sourcePoint" />
            <mxPoint x="719.87" y="442.5" as="targetPoint" />
          </mxGeometry>
        </mxCell>
        <mxCell id="QGnAQyisiJ7Ppkhib9Jt-29" value="" style="endArrow=none;html=1;rounded=0;exitX=0.5;exitY=1;exitDx=0;exitDy=0;entryX=0.5;entryY=0;entryDx=0;entryDy=0;fontSize=14;" edge="1" parent="1" source="QGnAQyisiJ7Ppkhib9Jt-14" target="QGnAQyisiJ7Ppkhib9Jt-68">
          <mxGeometry width="50" height="50" relative="1" as="geometry">
            <mxPoint x="597.87" y="552.5" as="sourcePoint" />
            <mxPoint x="797.87" y="452.5" as="targetPoint" />
          </mxGeometry>
        </mxCell>
        <mxCell id="QGnAQyisiJ7Ppkhib9Jt-30" value="" style="endArrow=none;html=1;rounded=0;exitX=0.25;exitY=0;exitDx=0;exitDy=0;entryX=0.676;entryY=0.967;entryDx=0;entryDy=0;entryPerimeter=0;fontSize=14;" edge="1" parent="1" source="QGnAQyisiJ7Ppkhib9Jt-16" target="QGnAQyisiJ7Ppkhib9Jt-71">
          <mxGeometry width="50" height="50" relative="1" as="geometry">
            <mxPoint x="487.98" y="545" as="sourcePoint" />
            <mxPoint x="622.98" y="615" as="targetPoint" />
          </mxGeometry>
        </mxCell>
        <mxCell id="QGnAQyisiJ7Ppkhib9Jt-31" value="&lt;div style=&quot;font-size: 14px;&quot;&gt;&lt;font style=&quot;font-size: 14px;&quot;&gt;giveaway&lt;/font&gt;&lt;/div&gt;" style="rounded=0;whiteSpace=wrap;html=1;fontSize=14;fontColor=#0000CC;" vertex="1" parent="1">
          <mxGeometry x="509.5" y="220" width="90" height="40" as="geometry" />
        </mxCell>
        <mxCell id="QGnAQyisiJ7Ppkhib9Jt-32" value="givelist" style="rhombus;whiteSpace=wrap;html=1;fontSize=14;fontColor=#0000CC;" vertex="1" parent="1">
          <mxGeometry x="368.5" y="220" width="79" height="40" as="geometry" />
        </mxCell>
        <mxCell id="QGnAQyisiJ7Ppkhib9Jt-33" value="" style="endArrow=none;html=1;rounded=0;entryX=0;entryY=0.5;entryDx=0;entryDy=0;exitX=1;exitY=0.5;exitDx=0;exitDy=0;fontSize=14;fontColor=#0000CC;" edge="1" parent="1" source="QGnAQyisiJ7Ppkhib9Jt-32" target="QGnAQyisiJ7Ppkhib9Jt-31">
          <mxGeometry width="50" height="50" relative="1" as="geometry">
            <mxPoint x="398" y="410" as="sourcePoint" />
            <mxPoint x="448" y="360" as="targetPoint" />
          </mxGeometry>
        </mxCell>
        <mxCell id="QGnAQyisiJ7Ppkhib9Jt-34" value="" style="endArrow=none;html=1;rounded=0;exitX=0.5;exitY=0;exitDx=0;exitDy=0;entryX=0;entryY=0.5;entryDx=0;entryDy=0;edgeStyle=orthogonalEdgeStyle;fontSize=14;fontColor=#0000FF;" edge="1" parent="1" source="QGnAQyisiJ7Ppkhib9Jt-5" target="QGnAQyisiJ7Ppkhib9Jt-32">
          <mxGeometry width="50" height="50" relative="1" as="geometry">
            <mxPoint x="428" y="400" as="sourcePoint" />
            <mxPoint x="478" y="350" as="targetPoint" />
          </mxGeometry>
        </mxCell>
        <mxCell id="QGnAQyisiJ7Ppkhib9Jt-35" value="M" style="text;html=1;align=center;verticalAlign=middle;whiteSpace=wrap;rounded=0;fontSize=14;fontColor=#0000CC;" vertex="1" parent="1">
          <mxGeometry x="338" y="220" width="20" height="20" as="geometry" />
        </mxCell>
        <mxCell id="QGnAQyisiJ7Ppkhib9Jt-36" value="N" style="text;html=1;align=center;verticalAlign=middle;whiteSpace=wrap;rounded=0;fontSize=14;fontColor=#0000CC;" vertex="1" parent="1">
          <mxGeometry x="468" y="220" width="20" height="20" as="geometry" />
        </mxCell>
        <mxCell id="QGnAQyisiJ7Ppkhib9Jt-37" value="" style="endArrow=none;html=1;rounded=0;entryX=0.309;entryY=0.944;entryDx=0;entryDy=0;entryPerimeter=0;exitX=0.75;exitY=0;exitDx=0;exitDy=0;fontSize=14;" edge="1" parent="1" source="QGnAQyisiJ7Ppkhib9Jt-16" target="QGnAQyisiJ7Ppkhib9Jt-72">
          <mxGeometry width="50" height="50" relative="1" as="geometry">
            <mxPoint x="697.98" y="655" as="sourcePoint" />
            <mxPoint x="712.98" y="615" as="targetPoint" />
          </mxGeometry>
        </mxCell>
        <mxCell id="QGnAQyisiJ7Ppkhib9Jt-38" value="" style="endArrow=none;html=1;rounded=0;exitX=0.25;exitY=0;exitDx=0;exitDy=0;entryX=0.5;entryY=1;entryDx=0;entryDy=0;fontSize=14;fontColor=#0000CC;" edge="1" parent="1" source="QGnAQyisiJ7Ppkhib9Jt-31" target="QGnAQyisiJ7Ppkhib9Jt-52">
          <mxGeometry width="50" height="50" relative="1" as="geometry">
            <mxPoint x="557" y="350" as="sourcePoint" />
            <mxPoint x="558.5" y="190" as="targetPoint" />
          </mxGeometry>
        </mxCell>
        <mxCell id="QGnAQyisiJ7Ppkhib9Jt-39" value="" style="endArrow=none;html=1;rounded=0;exitX=0.75;exitY=0;exitDx=0;exitDy=0;entryX=0.247;entryY=0.942;entryDx=0;entryDy=0;entryPerimeter=0;fontSize=14;fontColor=#0000CC;" edge="1" parent="1" source="QGnAQyisiJ7Ppkhib9Jt-31" target="QGnAQyisiJ7Ppkhib9Jt-51">
          <mxGeometry width="50" height="50" relative="1" as="geometry">
            <mxPoint x="590.5" y="220" as="sourcePoint" />
            <mxPoint x="660.5000000000002" y="180" as="targetPoint" />
          </mxGeometry>
        </mxCell>
        <mxCell id="QGnAQyisiJ7Ppkhib9Jt-40" value="&lt;div style=&quot;font-size: 14px;&quot;&gt;&lt;font style=&quot;font-size: 14px;&quot;&gt;Admin&lt;/font&gt;&lt;/div&gt;" style="rounded=0;whiteSpace=wrap;html=1;fontSize=14;" vertex="1" parent="1">
          <mxGeometry x="647.88" y="960" width="90" height="40" as="geometry" />
        </mxCell>
        <mxCell id="QGnAQyisiJ7Ppkhib9Jt-41" value="&lt;div style=&quot;font-size: 14px;&quot;&gt;&lt;font style=&quot;font-size: 14px;&quot;&gt;staff&lt;/font&gt;&lt;/div&gt;" style="rounded=0;whiteSpace=wrap;html=1;fontSize=14;" vertex="1" parent="1">
          <mxGeometry x="362.75" y="110" width="90" height="40" as="geometry" />
        </mxCell>
        <mxCell id="QGnAQyisiJ7Ppkhib9Jt-42" value="" style="endArrow=none;html=1;rounded=0;exitX=0.5;exitY=0;exitDx=0;exitDy=0;entryX=0.5;entryY=1;entryDx=0;entryDy=0;fontSize=14;" edge="1" parent="1" source="QGnAQyisiJ7Ppkhib9Jt-32" target="QGnAQyisiJ7Ppkhib9Jt-41">
          <mxGeometry width="50" height="50" relative="1" as="geometry">
            <mxPoint x="418" y="330" as="sourcePoint" />
            <mxPoint x="468" y="280" as="targetPoint" />
          </mxGeometry>
        </mxCell>
        <mxCell id="QGnAQyisiJ7Ppkhib9Jt-43" value="&lt;font style=&quot;font-size: 14px;&quot;&gt;has&lt;/font&gt;" style="rhombus;whiteSpace=wrap;html=1;fontSize=14;" vertex="1" parent="1">
          <mxGeometry x="477.37" y="635" width="80" height="40" as="geometry" />
        </mxCell>
        <mxCell id="QGnAQyisiJ7Ppkhib9Jt-44" value="" style="endArrow=none;html=1;rounded=0;exitX=0.5;exitY=1;exitDx=0;exitDy=0;entryX=0.5;entryY=0;entryDx=0;entryDy=0;fontSize=14;" edge="1" parent="1" source="QGnAQyisiJ7Ppkhib9Jt-8">
          <mxGeometry width="50" height="50" relative="1" as="geometry">
            <mxPoint x="434.87" y="655" as="sourcePoint" />
            <mxPoint x="515.87" y="635" as="targetPoint" />
          </mxGeometry>
        </mxCell>
        <mxCell id="QGnAQyisiJ7Ppkhib9Jt-45" value="" style="endArrow=none;html=1;rounded=0;exitX=0.5;exitY=1;exitDx=0;exitDy=0;entryX=0;entryY=0.5;entryDx=0;entryDy=0;edgeStyle=orthogonalEdgeStyle;fontSize=14;" edge="1" parent="1" source="QGnAQyisiJ7Ppkhib9Jt-43" target="QGnAQyisiJ7Ppkhib9Jt-16">
          <mxGeometry width="50" height="50" relative="1" as="geometry">
            <mxPoint x="471.87" y="645" as="sourcePoint" />
            <mxPoint x="521.87" y="595" as="targetPoint" />
          </mxGeometry>
        </mxCell>
        <mxCell id="QGnAQyisiJ7Ppkhib9Jt-46" value="M" style="text;html=1;align=center;verticalAlign=middle;whiteSpace=wrap;rounded=0;fontSize=14;" vertex="1" parent="1">
          <mxGeometry x="518.87" y="605" width="20" height="20" as="geometry" />
        </mxCell>
        <mxCell id="QGnAQyisiJ7Ppkhib9Jt-47" value="1" style="text;html=1;align=center;verticalAlign=middle;whiteSpace=wrap;rounded=0;fontSize=14;" vertex="1" parent="1">
          <mxGeometry x="518.87" y="690" width="20" height="20" as="geometry" />
        </mxCell>
        <mxCell id="QGnAQyisiJ7Ppkhib9Jt-48" value="&lt;font style=&quot;font-size: 14px;&quot;&gt;age_username&lt;/font&gt;" style="ellipse;whiteSpace=wrap;html=1;fontSize=14;" vertex="1" parent="1">
          <mxGeometry x="146.87" y="445" width="104" height="30" as="geometry" />
        </mxCell>
        <mxCell id="QGnAQyisiJ7Ppkhib9Jt-49" style="rounded=0;orthogonalLoop=1;jettySize=auto;html=1;exitX=0.5;exitY=0;exitDx=0;exitDy=0;entryX=0.25;entryY=1;entryDx=0;entryDy=0;endArrow=none;endFill=0;" edge="1" parent="1" source="QGnAQyisiJ7Ppkhib9Jt-50" target="QGnAQyisiJ7Ppkhib9Jt-5">
          <mxGeometry relative="1" as="geometry" />
        </mxCell>
        <mxCell id="QGnAQyisiJ7Ppkhib9Jt-50" value="&lt;font style=&quot;font-size: 14px;&quot;&gt;&lt;u&gt;age_id&lt;/u&gt;&lt;/font&gt;" style="ellipse;whiteSpace=wrap;html=1;fontSize=14;" vertex="1" parent="1">
          <mxGeometry x="25.12" y="565" width="60" height="30" as="geometry" />
        </mxCell>
        <mxCell id="QGnAQyisiJ7Ppkhib9Jt-51" value="&lt;font style=&quot;font-size: 14px;&quot;&gt;giv_amount&lt;/font&gt;" style="ellipse;whiteSpace=wrap;html=1;fontSize=14;fontColor=#0000CC;" vertex="1" parent="1">
          <mxGeometry x="569" y="170" width="86.5" height="30" as="geometry" />
        </mxCell>
        <mxCell id="QGnAQyisiJ7Ppkhib9Jt-52" value="&lt;font style=&quot;font-size: 14px;&quot;&gt;&lt;u&gt;giv_id&lt;/u&gt;&lt;/font&gt;" style="ellipse;whiteSpace=wrap;html=1;fontSize=14;fontColor=#0000CC;" vertex="1" parent="1">
          <mxGeometry x="485.5" y="170" width="56" height="30" as="geometry" />
        </mxCell>
        <mxCell id="QGnAQyisiJ7Ppkhib9Jt-53" value="&lt;font style=&quot;font-size: 14px;&quot;&gt;giv_name&lt;/font&gt;" style="ellipse;whiteSpace=wrap;html=1;fontSize=14;fontColor=#0000CC;" vertex="1" parent="1">
          <mxGeometry x="517" y="140" width="72" height="30" as="geometry" />
        </mxCell>
        <mxCell id="QGnAQyisiJ7Ppkhib9Jt-54" value="" style="endArrow=none;html=1;rounded=0;exitX=0.5;exitY=0;exitDx=0;exitDy=0;entryX=0.5;entryY=1;entryDx=0;entryDy=0;fontSize=14;" edge="1" parent="1" source="QGnAQyisiJ7Ppkhib9Jt-31" target="QGnAQyisiJ7Ppkhib9Jt-53">
          <mxGeometry width="50" height="50" relative="1" as="geometry">
            <mxPoint x="629.5" y="220" as="sourcePoint" />
            <mxPoint x="652.5" y="183" as="targetPoint" />
          </mxGeometry>
        </mxCell>
        <mxCell id="QGnAQyisiJ7Ppkhib9Jt-55" style="rounded=0;orthogonalLoop=1;jettySize=auto;html=1;exitX=0.5;exitY=1;exitDx=0;exitDy=0;entryX=0.25;entryY=0;entryDx=0;entryDy=0;endArrow=none;endFill=0;" edge="1" parent="1" source="QGnAQyisiJ7Ppkhib9Jt-56" target="QGnAQyisiJ7Ppkhib9Jt-5">
          <mxGeometry relative="1" as="geometry" />
        </mxCell>
        <mxCell id="QGnAQyisiJ7Ppkhib9Jt-56" value="&lt;font style=&quot;font-size: 14px;&quot;&gt;age_password&lt;/font&gt;" style="ellipse;whiteSpace=wrap;html=1;fontSize=14;" vertex="1" parent="1">
          <mxGeometry x="26.87" y="445" width="97" height="30" as="geometry" />
        </mxCell>
        <mxCell id="QGnAQyisiJ7Ppkhib9Jt-57" value="&lt;font style=&quot;font-size: 14px;&quot;&gt;stf_password&lt;/font&gt;" style="ellipse;whiteSpace=wrap;html=1;fontSize=14;" vertex="1" parent="1">
          <mxGeometry x="435" y="70" width="91" height="30" as="geometry" />
        </mxCell>
        <mxCell id="QGnAQyisiJ7Ppkhib9Jt-58" value="&lt;font style=&quot;font-size: 14px;&quot;&gt;&lt;u&gt;stf_id&lt;/u&gt;&lt;/font&gt;" style="ellipse;whiteSpace=wrap;html=1;fontSize=14;" vertex="1" parent="1">
          <mxGeometry x="324" y="70" width="52" height="30" as="geometry" />
        </mxCell>
        <mxCell id="QGnAQyisiJ7Ppkhib9Jt-59" value="&lt;font style=&quot;font-size: 14px;&quot;&gt;stf_username&lt;/font&gt;" style="ellipse;whiteSpace=wrap;html=1;fontSize=14;" vertex="1" parent="1">
          <mxGeometry x="360.25" y="40" width="95.5" height="30" as="geometry" />
        </mxCell>
        <mxCell id="QGnAQyisiJ7Ppkhib9Jt-60" value="" style="endArrow=none;html=1;rounded=0;exitX=0.75;exitY=0;exitDx=0;exitDy=0;entryX=0;entryY=1;entryDx=0;entryDy=0;fontSize=14;" edge="1" parent="1" source="QGnAQyisiJ7Ppkhib9Jt-41" target="QGnAQyisiJ7Ppkhib9Jt-57">
          <mxGeometry width="50" height="50" relative="1" as="geometry">
            <mxPoint x="423" y="110" as="sourcePoint" />
            <mxPoint x="473" y="60" as="targetPoint" />
          </mxGeometry>
        </mxCell>
        <mxCell id="QGnAQyisiJ7Ppkhib9Jt-61" value="" style="endArrow=none;html=1;rounded=0;exitX=0.5;exitY=0;exitDx=0;exitDy=0;entryX=0.5;entryY=1;entryDx=0;entryDy=0;fontSize=14;" edge="1" parent="1" source="QGnAQyisiJ7Ppkhib9Jt-41" target="QGnAQyisiJ7Ppkhib9Jt-59">
          <mxGeometry width="50" height="50" relative="1" as="geometry">
            <mxPoint x="448" y="120" as="sourcePoint" />
            <mxPoint x="491" y="83" as="targetPoint" />
          </mxGeometry>
        </mxCell>
        <mxCell id="QGnAQyisiJ7Ppkhib9Jt-62" value="" style="endArrow=none;html=1;rounded=0;exitX=0.25;exitY=0;exitDx=0;exitDy=0;entryX=1;entryY=1;entryDx=0;entryDy=0;fontSize=14;" edge="1" parent="1" source="QGnAQyisiJ7Ppkhib9Jt-41" target="QGnAQyisiJ7Ppkhib9Jt-58">
          <mxGeometry width="50" height="50" relative="1" as="geometry">
            <mxPoint x="418" y="120" as="sourcePoint" />
            <mxPoint x="438" y="50" as="targetPoint" />
          </mxGeometry>
        </mxCell>
        <mxCell id="QGnAQyisiJ7Ppkhib9Jt-63" value="&lt;font color=&quot;#00cc00&quot; style=&quot;font-size: 14px;&quot;&gt;hos_id&lt;/font&gt;" style="ellipse;whiteSpace=wrap;html=1;fontSize=14;" vertex="1" parent="1">
          <mxGeometry x="505.62" y="465" width="72" height="30" as="geometry" />
        </mxCell>
        <mxCell id="QGnAQyisiJ7Ppkhib9Jt-64" value="&lt;font style=&quot;font-size: 14px;&quot;&gt;equ_name&lt;/font&gt;" style="ellipse;whiteSpace=wrap;html=1;fontSize=14;" vertex="1" parent="1">
          <mxGeometry x="442.87" y="445" width="70" height="30" as="geometry" />
        </mxCell>
        <mxCell id="QGnAQyisiJ7Ppkhib9Jt-65" value="" style="endArrow=none;html=1;rounded=0;exitX=0.25;exitY=0;exitDx=0;exitDy=0;entryX=0.5;entryY=1;entryDx=0;entryDy=0;fontSize=14;" edge="1" parent="1" source="QGnAQyisiJ7Ppkhib9Jt-8" target="QGnAQyisiJ7Ppkhib9Jt-64">
          <mxGeometry width="50" height="50" relative="1" as="geometry">
            <mxPoint x="511.87" y="475" as="sourcePoint" />
            <mxPoint x="495.87" y="455" as="targetPoint" />
          </mxGeometry>
        </mxCell>
        <mxCell id="QGnAQyisiJ7Ppkhib9Jt-66" value="" style="endArrow=none;html=1;rounded=0;exitX=0.75;exitY=0;exitDx=0;exitDy=0;entryX=0.5;entryY=1;entryDx=0;entryDy=0;fontSize=14;" edge="1" parent="1" source="QGnAQyisiJ7Ppkhib9Jt-8" target="QGnAQyisiJ7Ppkhib9Jt-63">
          <mxGeometry width="50" height="50" relative="1" as="geometry">
            <mxPoint x="541.87" y="475" as="sourcePoint" />
            <mxPoint x="551.87" y="416" as="targetPoint" />
          </mxGeometry>
        </mxCell>
        <mxCell id="QGnAQyisiJ7Ppkhib9Jt-67" value="&lt;font style=&quot;font-size: 14px;&quot;&gt;&lt;u&gt;typ_id&lt;/u&gt;&lt;/font&gt;" style="ellipse;whiteSpace=wrap;html=1;fontSize=14;" vertex="1" parent="1">
          <mxGeometry x="691.87" y="475" width="55.75" height="30" as="geometry" />
        </mxCell>
        <mxCell id="QGnAQyisiJ7Ppkhib9Jt-68" value="&lt;font style=&quot;font-size: 14px;&quot;&gt;typ_comment&lt;/font&gt;" style="ellipse;whiteSpace=wrap;html=1;fontSize=14;" vertex="1" parent="1">
          <mxGeometry x="701.62" y="580" width="98.5" height="30" as="geometry" />
        </mxCell>
        <mxCell id="QGnAQyisiJ7Ppkhib9Jt-69" value="&lt;font style=&quot;font-size: 14px;&quot;&gt;typ_name&lt;/font&gt;" style="ellipse;whiteSpace=wrap;html=1;fontSize=14;" vertex="1" parent="1">
          <mxGeometry x="738.87" y="445" width="72" height="30" as="geometry" />
        </mxCell>
        <mxCell id="QGnAQyisiJ7Ppkhib9Jt-70" value="" style="endArrow=none;html=1;rounded=0;exitX=0.5;exitY=0;exitDx=0;exitDy=0;entryX=0.5;entryY=1;entryDx=0;entryDy=0;fontSize=14;" edge="1" parent="1" source="QGnAQyisiJ7Ppkhib9Jt-14" target="QGnAQyisiJ7Ppkhib9Jt-69">
          <mxGeometry width="50" height="50" relative="1" as="geometry">
            <mxPoint x="788.87" y="472.5" as="sourcePoint" />
            <mxPoint x="807.87" y="432.5" as="targetPoint" />
          </mxGeometry>
        </mxCell>
        <mxCell id="QGnAQyisiJ7Ppkhib9Jt-71" value="&lt;font style=&quot;font-size: 14px;&quot;&gt;&lt;u&gt;sta_id&lt;/u&gt;&lt;/font&gt;" style="ellipse;whiteSpace=wrap;html=1;fontSize=14;" vertex="1" parent="1">
          <mxGeometry x="592.98" y="665" width="52" height="30" as="geometry" />
        </mxCell>
        <mxCell id="QGnAQyisiJ7Ppkhib9Jt-72" value="&lt;font style=&quot;font-size: 14px;&quot;&gt;sta_comment&lt;/font&gt;" style="ellipse;whiteSpace=wrap;html=1;fontSize=14;" vertex="1" parent="1">
          <mxGeometry x="686.76" y="665" width="89" height="30" as="geometry" />
        </mxCell>
        <mxCell id="QGnAQyisiJ7Ppkhib9Jt-73" value="&lt;font style=&quot;font-size: 14px;&quot;&gt;sta_name&lt;/font&gt;" style="ellipse;whiteSpace=wrap;html=1;fontSize=14;" vertex="1" parent="1">
          <mxGeometry x="632.4200000000001" y="635" width="72" height="30" as="geometry" />
        </mxCell>
        <mxCell id="QGnAQyisiJ7Ppkhib9Jt-74" value="" style="endArrow=none;html=1;rounded=0;entryX=0.5;entryY=1;entryDx=0;entryDy=0;exitX=0.5;exitY=0;exitDx=0;exitDy=0;fontSize=14;" edge="1" parent="1" source="QGnAQyisiJ7Ppkhib9Jt-16" target="QGnAQyisiJ7Ppkhib9Jt-73">
          <mxGeometry width="50" height="50" relative="1" as="geometry">
            <mxPoint x="667.98" y="655" as="sourcePoint" />
            <mxPoint x="713.98" y="615" as="targetPoint" />
          </mxGeometry>
        </mxCell>
        <mxCell id="QGnAQyisiJ7Ppkhib9Jt-75" value="&lt;font style=&quot;font-size: 14px;&quot;&gt;pat_numberhn&lt;/font&gt;" style="ellipse;whiteSpace=wrap;html=1;fontSize=14;" vertex="1" parent="1">
          <mxGeometry x="44.87" y="795" width="102" height="30" as="geometry" />
        </mxCell>
        <mxCell id="QGnAQyisiJ7Ppkhib9Jt-76" style="rounded=0;orthogonalLoop=1;jettySize=auto;html=1;exitX=0;exitY=1;exitDx=0;exitDy=0;entryX=0.75;entryY=0;entryDx=0;entryDy=0;endArrow=none;endFill=0;" edge="1" parent="1" source="QGnAQyisiJ7Ppkhib9Jt-77" target="QGnAQyisiJ7Ppkhib9Jt-3">
          <mxGeometry relative="1" as="geometry" />
        </mxCell>
        <mxCell id="QGnAQyisiJ7Ppkhib9Jt-77" value="&lt;font style=&quot;font-size: 14px;&quot;&gt;&lt;u&gt;pat_id&lt;/u&gt;&lt;/font&gt;" style="ellipse;whiteSpace=wrap;html=1;fontSize=14;" vertex="1" parent="1">
          <mxGeometry x="174.62" y="675" width="48.5" height="30" as="geometry" />
        </mxCell>
        <mxCell id="QGnAQyisiJ7Ppkhib9Jt-78" value="&lt;font style=&quot;font-size: 14px;&quot;&gt;pat_phone&lt;/font&gt;" style="ellipse;whiteSpace=wrap;html=1;fontSize=14;" vertex="1" parent="1">
          <mxGeometry x="180.37" y="795" width="79.38" height="30" as="geometry" />
        </mxCell>
        <mxCell id="QGnAQyisiJ7Ppkhib9Jt-79" value="&lt;font style=&quot;font-size: 14px;&quot;&gt;bor_datepickup&lt;/font&gt;" style="ellipse;whiteSpace=wrap;html=1;fontSize=14;" vertex="1" parent="1">
          <mxGeometry x="402.87" y="565" width="101" height="30" as="geometry" />
        </mxCell>
        <mxCell id="QGnAQyisiJ7Ppkhib9Jt-80" value="" style="endArrow=none;html=1;rounded=0;exitX=0;exitY=0;exitDx=0;exitDy=0;entryX=1;entryY=1;entryDx=0;entryDy=0;fontSize=14;" edge="1" parent="1" source="QGnAQyisiJ7Ppkhib9Jt-79" target="QGnAQyisiJ7Ppkhib9Jt-10">
          <mxGeometry width="50" height="50" relative="1" as="geometry">
            <mxPoint x="400.87" y="495" as="sourcePoint" />
            <mxPoint x="384.87" y="522" as="targetPoint" />
          </mxGeometry>
        </mxCell>
        <mxCell id="QGnAQyisiJ7Ppkhib9Jt-81" value="&lt;font style=&quot;font-size: 14px;&quot;&gt;&lt;u&gt;adm_auto&lt;/u&gt;&lt;/font&gt;" style="ellipse;whiteSpace=wrap;html=1;fontSize=14;" vertex="1" parent="1">
          <mxGeometry x="605.87" y="910" width="75" height="30" as="geometry" />
        </mxCell>
        <mxCell id="QGnAQyisiJ7Ppkhib9Jt-82" value="&lt;font style=&quot;font-size: 14px;&quot;&gt;adm_password&lt;/font&gt;" style="ellipse;whiteSpace=wrap;html=1;fontSize=14;" vertex="1" parent="1">
          <mxGeometry x="699.87" y="910" width="103" height="30" as="geometry" />
        </mxCell>
        <mxCell id="QGnAQyisiJ7Ppkhib9Jt-83" value="&lt;font style=&quot;font-size: 14px;&quot;&gt;adm_username&lt;/font&gt;" style="ellipse;whiteSpace=wrap;html=1;fontSize=14;" vertex="1" parent="1">
          <mxGeometry x="638.76" y="880" width="108.75" height="30" as="geometry" />
        </mxCell>
        <mxCell id="QGnAQyisiJ7Ppkhib9Jt-84" value="" style="endArrow=none;html=1;rounded=0;exitX=0.25;exitY=0;exitDx=0;exitDy=0;entryX=0.681;entryY=0.976;entryDx=0;entryDy=0;entryPerimeter=0;fontSize=14;" edge="1" parent="1" source="QGnAQyisiJ7Ppkhib9Jt-40" target="QGnAQyisiJ7Ppkhib9Jt-81">
          <mxGeometry width="50" height="50" relative="1" as="geometry">
            <mxPoint x="496.12" y="840" as="sourcePoint" />
            <mxPoint x="546.12" y="790" as="targetPoint" />
          </mxGeometry>
        </mxCell>
        <mxCell id="QGnAQyisiJ7Ppkhib9Jt-85" value="" style="endArrow=none;html=1;rounded=0;exitX=0.5;exitY=0;exitDx=0;exitDy=0;entryX=0.5;entryY=1;entryDx=0;entryDy=0;fontSize=14;" edge="1" parent="1" source="QGnAQyisiJ7Ppkhib9Jt-40" target="QGnAQyisiJ7Ppkhib9Jt-83">
          <mxGeometry width="50" height="50" relative="1" as="geometry">
            <mxPoint x="496.12" y="840" as="sourcePoint" />
            <mxPoint x="546.12" y="790" as="targetPoint" />
          </mxGeometry>
        </mxCell>
        <mxCell id="QGnAQyisiJ7Ppkhib9Jt-86" value="" style="endArrow=none;html=1;rounded=0;exitX=0.75;exitY=0;exitDx=0;exitDy=0;entryX=0.306;entryY=0.969;entryDx=0;entryDy=0;entryPerimeter=0;fontSize=14;" edge="1" parent="1" source="QGnAQyisiJ7Ppkhib9Jt-40" target="QGnAQyisiJ7Ppkhib9Jt-82">
          <mxGeometry width="50" height="50" relative="1" as="geometry">
            <mxPoint x="496.12" y="840" as="sourcePoint" />
            <mxPoint x="546.12" y="790" as="targetPoint" />
          </mxGeometry>
        </mxCell>
        <mxCell id="QGnAQyisiJ7Ppkhib9Jt-87" value="&lt;font style=&quot;font-size: 14px;&quot;&gt;gli_datepickup&lt;/font&gt;" style="ellipse;whiteSpace=wrap;html=1;fontSize=14;fontColor=#0000CC;" vertex="1" parent="1">
          <mxGeometry x="427" y="270" width="102" height="30" as="geometry" />
        </mxCell>
        <mxCell id="QGnAQyisiJ7Ppkhib9Jt-88" value="&lt;font style=&quot;font-size: 14px;&quot;&gt;gli_amount&lt;/font&gt;" style="ellipse;whiteSpace=wrap;html=1;fontSize=14;fontColor=#0000CC;" vertex="1" parent="1">
          <mxGeometry x="312" y="270" width="72" height="30" as="geometry" />
        </mxCell>
        <mxCell id="QGnAQyisiJ7Ppkhib9Jt-89" value="&lt;font style=&quot;font-size: 14px;&quot;&gt;&lt;u&gt;gli_id&lt;/u&gt;&lt;/font&gt;" style="ellipse;whiteSpace=wrap;html=1;fontSize=14;fontColor=#0000CC;" vertex="1" parent="1">
          <mxGeometry x="340" y="175" width="62" height="30" as="geometry" />
        </mxCell>
        <mxCell id="QGnAQyisiJ7Ppkhib9Jt-90" value="" style="endArrow=none;html=1;rounded=0;exitX=0;exitY=0;exitDx=0;exitDy=0;entryX=1;entryY=1;entryDx=0;entryDy=0;fontSize=14;fontColor=#0000CC;" edge="1" parent="1" source="QGnAQyisiJ7Ppkhib9Jt-87" target="QGnAQyisiJ7Ppkhib9Jt-32">
          <mxGeometry width="50" height="50" relative="1" as="geometry">
            <mxPoint x="473" y="285" as="sourcePoint" />
            <mxPoint x="427" y="255" as="targetPoint" />
          </mxGeometry>
        </mxCell>
        <mxCell id="QGnAQyisiJ7Ppkhib9Jt-91" value="" style="endArrow=none;html=1;rounded=0;exitX=0;exitY=0;exitDx=0;exitDy=0;entryX=0.5;entryY=1;entryDx=0;entryDy=0;fontSize=14;fontColor=#0000CC;" edge="1" parent="1" source="QGnAQyisiJ7Ppkhib9Jt-32" target="QGnAQyisiJ7Ppkhib9Jt-89">
          <mxGeometry width="50" height="50" relative="1" as="geometry">
            <mxPoint x="387" y="225" as="sourcePoint" />
            <mxPoint x="341" y="195" as="targetPoint" />
          </mxGeometry>
        </mxCell>
        <mxCell id="QGnAQyisiJ7Ppkhib9Jt-92" value="" style="endArrow=none;html=1;rounded=0;exitX=1;exitY=0;exitDx=0;exitDy=0;entryX=0;entryY=1;entryDx=0;entryDy=0;fontSize=14;fontColor=#0000CC;" edge="1" parent="1" source="QGnAQyisiJ7Ppkhib9Jt-88" target="QGnAQyisiJ7Ppkhib9Jt-32">
          <mxGeometry width="50" height="50" relative="1" as="geometry">
            <mxPoint x="449" y="286" as="sourcePoint" />
            <mxPoint x="438" y="265" as="targetPoint" />
          </mxGeometry>
        </mxCell>
        <mxCell id="QGnAQyisiJ7Ppkhib9Jt-93" value="&lt;div style=&quot;font-size: 14px;&quot;&gt;&lt;font style=&quot;font-size: 14px;&quot;&gt;staff&lt;/font&gt;&lt;/div&gt;" style="rounded=0;whiteSpace=wrap;html=1;fontSize=14;" vertex="1" parent="1">
          <mxGeometry x="344.87" y="625" width="90" height="40" as="geometry" />
        </mxCell>
        <mxCell id="QGnAQyisiJ7Ppkhib9Jt-94" value="" style="endArrow=none;html=1;rounded=0;exitX=0.5;exitY=0;exitDx=0;exitDy=0;entryX=0.5;entryY=1;entryDx=0;entryDy=0;fontSize=14;" edge="1" parent="1" target="QGnAQyisiJ7Ppkhib9Jt-10">
          <mxGeometry width="50" height="50" relative="1" as="geometry">
            <mxPoint x="386.12" y="625" as="sourcePoint" />
            <mxPoint x="407.87" y="560" as="targetPoint" />
          </mxGeometry>
        </mxCell>
        <mxCell id="QGnAQyisiJ7Ppkhib9Jt-95" value="&lt;font style=&quot;font-size: 14px;&quot;&gt;hospital&lt;/font&gt;" style="rounded=0;whiteSpace=wrap;html=1;fontSize=14;fontColor=#00CC00;" vertex="1" parent="1">
          <mxGeometry x="644.98" y="265" width="90" height="40" as="geometry" />
        </mxCell>
        <mxCell id="QGnAQyisiJ7Ppkhib9Jt-96" value="" style="endArrow=none;html=1;rounded=0;entryX=0.5;entryY=1;entryDx=0;entryDy=0;fontSize=14;exitX=0.5;exitY=0;exitDx=0;exitDy=0;" edge="1" parent="1" source="QGnAQyisiJ7Ppkhib9Jt-102" target="QGnAQyisiJ7Ppkhib9Jt-95">
          <mxGeometry width="50" height="50" relative="1" as="geometry">
            <mxPoint x="638" y="330" as="sourcePoint" />
            <mxPoint x="641" y="307.5" as="targetPoint" />
          </mxGeometry>
        </mxCell>
        <mxCell id="QGnAQyisiJ7Ppkhib9Jt-97" value="&lt;font style=&quot;font-size: 14px;&quot;&gt;&lt;u&gt;equ_auto&lt;/u&gt;&lt;/font&gt;" style="ellipse;whiteSpace=wrap;html=1;fontSize=14;" vertex="1" parent="1">
          <mxGeometry x="541.87" y="565" width="70" height="30" as="geometry" />
        </mxCell>
        <mxCell id="QGnAQyisiJ7Ppkhib9Jt-98" value="&lt;span style=&quot;font-size: 14px;&quot;&gt;&lt;u&gt;hos_id&lt;/u&gt;&lt;/span&gt;" style="ellipse;whiteSpace=wrap;html=1;fontSize=14;fontColor=#00CC00;" vertex="1" parent="1">
          <mxGeometry x="670.88" y="210" width="56" height="30" as="geometry" />
        </mxCell>
        <mxCell id="QGnAQyisiJ7Ppkhib9Jt-99" value="&lt;font style=&quot;font-size: 14px;&quot;&gt;hos_name&lt;/font&gt;" style="ellipse;whiteSpace=wrap;html=1;fontSize=14;fontColor=#00CC00;" vertex="1" parent="1">
          <mxGeometry x="738.87" y="210" width="85" height="30" as="geometry" />
        </mxCell>
        <mxCell id="QGnAQyisiJ7Ppkhib9Jt-100" value="" style="endArrow=none;html=1;rounded=0;exitX=0.5;exitY=0;exitDx=0;exitDy=0;entryX=0.5;entryY=1;entryDx=0;entryDy=0;fontSize=14;fontColor=#00CC00;" edge="1" parent="1" source="QGnAQyisiJ7Ppkhib9Jt-95" target="QGnAQyisiJ7Ppkhib9Jt-98">
          <mxGeometry width="50" height="50" relative="1" as="geometry">
            <mxPoint x="587" y="230" as="sourcePoint" />
            <mxPoint x="600" y="208" as="targetPoint" />
          </mxGeometry>
        </mxCell>
        <mxCell id="QGnAQyisiJ7Ppkhib9Jt-101" value="" style="endArrow=none;html=1;rounded=0;exitX=0.75;exitY=0;exitDx=0;exitDy=0;entryX=0;entryY=1;entryDx=0;entryDy=0;fontSize=14;fontColor=#00CC00;" edge="1" parent="1" source="QGnAQyisiJ7Ppkhib9Jt-95" target="QGnAQyisiJ7Ppkhib9Jt-99">
          <mxGeometry width="50" height="50" relative="1" as="geometry">
            <mxPoint x="597" y="240" as="sourcePoint" />
            <mxPoint x="610" y="218" as="targetPoint" />
          </mxGeometry>
        </mxCell>
        <mxCell id="QGnAQyisiJ7Ppkhib9Jt-102" value="&lt;font style=&quot;font-size: 14px;&quot;&gt;belong to&lt;/font&gt;" style="rhombus;whiteSpace=wrap;html=1;fontSize=14;fontColor=#00CC00;" vertex="1" parent="1">
          <mxGeometry x="618.86" y="365" width="85.56" height="40" as="geometry" />
        </mxCell>
        <mxCell id="QGnAQyisiJ7Ppkhib9Jt-103" value="" style="endArrow=none;html=1;rounded=0;entryX=0.5;entryY=1;entryDx=0;entryDy=0;fontSize=14;exitX=1;exitY=0;exitDx=0;exitDy=0;" edge="1" parent="1" source="QGnAQyisiJ7Ppkhib9Jt-8" target="QGnAQyisiJ7Ppkhib9Jt-102">
          <mxGeometry width="50" height="50" relative="1" as="geometry">
            <mxPoint x="580" y="410" as="sourcePoint" />
            <mxPoint x="686" y="310" as="targetPoint" />
          </mxGeometry>
        </mxCell>
        <mxCell id="QGnAQyisiJ7Ppkhib9Jt-104" style="rounded=0;orthogonalLoop=1;jettySize=auto;html=1;exitX=0.5;exitY=0;exitDx=0;exitDy=0;entryX=0;entryY=1;entryDx=0;entryDy=0;endArrow=none;endFill=0;" edge="1" parent="1" source="QGnAQyisiJ7Ppkhib9Jt-105" target="QGnAQyisiJ7Ppkhib9Jt-10">
          <mxGeometry relative="1" as="geometry" />
        </mxCell>
        <mxCell id="QGnAQyisiJ7Ppkhib9Jt-105" value="bor_datesend" style="ellipse;whiteSpace=wrap;html=1;fontSize=14;" vertex="1" parent="1">
          <mxGeometry x="283.62" y="565" width="95.75" height="30" as="geometry" />
        </mxCell>
        <mxCell id="QGnAQyisiJ7Ppkhib9Jt-106" style="rounded=0;orthogonalLoop=1;jettySize=auto;html=1;exitX=1;exitY=1;exitDx=0;exitDy=0;entryX=0;entryY=0;entryDx=0;entryDy=0;endArrow=none;endFill=0;" edge="1" parent="1" source="QGnAQyisiJ7Ppkhib9Jt-107" target="QGnAQyisiJ7Ppkhib9Jt-10">
          <mxGeometry relative="1" as="geometry" />
        </mxCell>
        <mxCell id="QGnAQyisiJ7Ppkhib9Jt-107" value="&lt;font style=&quot;font-size: 14px;&quot;&gt;bor_dateapproval&lt;/font&gt;" style="ellipse;whiteSpace=wrap;html=1;fontSize=14;" vertex="1" parent="1">
          <mxGeometry x="232.87" y="482.5" width="122.5" height="30" as="geometry" />
        </mxCell>
        <mxCell id="QGnAQyisiJ7Ppkhib9Jt-108" value="1" style="text;html=1;align=center;verticalAlign=middle;whiteSpace=wrap;rounded=0;fontSize=14;fontColor=#00CC00;" vertex="1" parent="1">
          <mxGeometry x="644.98" y="320" width="20" height="20" as="geometry" />
        </mxCell>
        <mxCell id="QGnAQyisiJ7Ppkhib9Jt-109" value="M" style="text;html=1;align=center;verticalAlign=middle;whiteSpace=wrap;rounded=0;fontSize=14;fontColor=#00CC00;" vertex="1" parent="1">
          <mxGeometry x="598.86" y="425" width="20" height="20" as="geometry" />
        </mxCell>
        <mxCell id="QGnAQyisiJ7Ppkhib9Jt-110" value="&lt;font style=&quot;font-size: 14px;&quot;&gt;volunteer&lt;/font&gt;" style="rounded=0;whiteSpace=wrap;html=1;" vertex="1" parent="1">
          <mxGeometry x="337.37" y="420" width="98" height="40" as="geometry" />
        </mxCell>
        <mxCell id="QGnAQyisiJ7Ppkhib9Jt-111" style="rounded=0;orthogonalLoop=1;jettySize=auto;html=1;exitX=0;exitY=0;exitDx=0;exitDy=0;entryX=0.75;entryY=1;entryDx=0;entryDy=0;endArrow=none;endFill=0;" edge="1" parent="1" source="QGnAQyisiJ7Ppkhib9Jt-112" target="QGnAQyisiJ7Ppkhib9Jt-95">
          <mxGeometry relative="1" as="geometry" />
        </mxCell>
        <mxCell id="QGnAQyisiJ7Ppkhib9Jt-112" value="&lt;font style=&quot;font-size: 14px;&quot;&gt;hos_subdistrict&lt;/font&gt;" style="ellipse;whiteSpace=wrap;html=1;fontSize=14;fontColor=#00CC00;" vertex="1" parent="1">
          <mxGeometry x="713" y="330" width="110.87" height="30" as="geometry" />
        </mxCell>
        <mxCell id="QGnAQyisiJ7Ppkhib9Jt-113" style="rounded=0;orthogonalLoop=1;jettySize=auto;html=1;exitX=1;exitY=1;exitDx=0;exitDy=0;entryX=0;entryY=0;entryDx=0;entryDy=0;endArrow=none;endFill=0;" edge="1" parent="1" source="QGnAQyisiJ7Ppkhib9Jt-114" target="QGnAQyisiJ7Ppkhib9Jt-110">
          <mxGeometry relative="1" as="geometry" />
        </mxCell>
        <mxCell id="QGnAQyisiJ7Ppkhib9Jt-114" value="&lt;u&gt;vol_id&lt;/u&gt;" style="ellipse;whiteSpace=wrap;html=1;" vertex="1" parent="1">
          <mxGeometry x="263.56" y="385" width="61.13" height="20" as="geometry" />
        </mxCell>
        <mxCell id="QGnAQyisiJ7Ppkhib9Jt-115" style="rounded=0;orthogonalLoop=1;jettySize=auto;html=1;exitX=0.5;exitY=1;exitDx=0;exitDy=0;entryX=0.25;entryY=0;entryDx=0;entryDy=0;endArrow=none;endFill=0;" edge="1" parent="1" source="QGnAQyisiJ7Ppkhib9Jt-116" target="QGnAQyisiJ7Ppkhib9Jt-110">
          <mxGeometry relative="1" as="geometry" />
        </mxCell>
        <mxCell id="QGnAQyisiJ7Ppkhib9Jt-116" value="vol_username" style="ellipse;whiteSpace=wrap;html=1;" vertex="1" parent="1">
          <mxGeometry x="310" y="350" width="80" height="25" as="geometry" />
        </mxCell>
        <mxCell id="QGnAQyisiJ7Ppkhib9Jt-117" style="rounded=0;orthogonalLoop=1;jettySize=auto;html=1;exitX=0.5;exitY=1;exitDx=0;exitDy=0;entryX=0.5;entryY=0;entryDx=0;entryDy=0;endArrow=none;endFill=0;" edge="1" parent="1" source="QGnAQyisiJ7Ppkhib9Jt-118" target="QGnAQyisiJ7Ppkhib9Jt-110">
          <mxGeometry relative="1" as="geometry" />
        </mxCell>
        <mxCell id="QGnAQyisiJ7Ppkhib9Jt-118" value="vol_password" style="ellipse;whiteSpace=wrap;html=1;" vertex="1" parent="1">
          <mxGeometry x="402" y="350" width="82.13" height="25" as="geometry" />
        </mxCell>
        <mxCell id="QGnAQyisiJ7Ppkhib9Jt-119" value="&lt;div style=&quot;font-size: 14px;&quot;&gt;&lt;font style=&quot;font-size: 14px;&quot;&gt;passwordregis&lt;/font&gt;&lt;/div&gt;" style="rounded=0;whiteSpace=wrap;html=1;fontSize=14;" vertex="1" parent="1">
          <mxGeometry x="171.43" y="960" width="112" height="40" as="geometry" />
        </mxCell>
        <mxCell id="QGnAQyisiJ7Ppkhib9Jt-120" style="rounded=0;orthogonalLoop=1;jettySize=auto;html=1;exitX=0.5;exitY=1;exitDx=0;exitDy=0;entryX=0.5;entryY=0;entryDx=0;entryDy=0;endArrow=none;endFill=0;" edge="1" parent="1" source="QGnAQyisiJ7Ppkhib9Jt-121" target="QGnAQyisiJ7Ppkhib9Jt-119">
          <mxGeometry relative="1" as="geometry" />
        </mxCell>
        <mxCell id="QGnAQyisiJ7Ppkhib9Jt-121" value="&lt;font style=&quot;font-size: 14px;&quot;&gt;pass_staff&lt;/font&gt;" style="ellipse;whiteSpace=wrap;html=1;fontSize=14;" vertex="1" parent="1">
          <mxGeometry x="174.05" y="880" width="79.38" height="30" as="geometry" />
        </mxCell>
        <mxCell id="QGnAQyisiJ7Ppkhib9Jt-122" style="rounded=0;orthogonalLoop=1;jettySize=auto;html=1;exitX=0.5;exitY=1;exitDx=0;exitDy=0;entryX=0.75;entryY=0;entryDx=0;entryDy=0;endArrow=none;endFill=0;" edge="1" parent="1" source="QGnAQyisiJ7Ppkhib9Jt-123" target="QGnAQyisiJ7Ppkhib9Jt-119">
          <mxGeometry relative="1" as="geometry" />
        </mxCell>
        <mxCell id="QGnAQyisiJ7Ppkhib9Jt-123" value="&lt;font style=&quot;font-size: 14px;&quot;&gt;pass_volunteer&lt;/font&gt;" style="ellipse;whiteSpace=wrap;html=1;fontSize=14;" vertex="1" parent="1">
          <mxGeometry x="238.62" y="910" width="101.38" height="30" as="geometry" />
        </mxCell>
        <mxCell id="QGnAQyisiJ7Ppkhib9Jt-124" style="rounded=0;orthogonalLoop=1;jettySize=auto;html=1;exitX=1;exitY=1;exitDx=0;exitDy=0;entryX=0.25;entryY=0;entryDx=0;entryDy=0;endArrow=none;endFill=0;" edge="1" parent="1" source="QGnAQyisiJ7Ppkhib9Jt-125" target="QGnAQyisiJ7Ppkhib9Jt-119">
          <mxGeometry relative="1" as="geometry" />
        </mxCell>
        <mxCell id="QGnAQyisiJ7Ppkhib9Jt-125" value="&lt;font style=&quot;font-size: 14px;&quot;&gt;pass_auto&lt;/font&gt;" style="ellipse;whiteSpace=wrap;html=1;fontSize=14;" vertex="1" parent="1">
          <mxGeometry x="107.36000000000001" y="910" width="79.38" height="30" as="geometry" />
        </mxCell>
        <mxCell id="QGnAQyisiJ7Ppkhib9Jt-126" value="&lt;font style=&quot;font-size: 14px;&quot;&gt;pass_volunteer&lt;/font&gt;" style="ellipse;whiteSpace=wrap;html=1;fontSize=14;" vertex="1" parent="1">
          <mxGeometry x="484.63" y="910" width="101.38" height="30" as="geometry" />
        </mxCell>
        <mxCell id="QGnAQyisiJ7Ppkhib9Jt-127" value="&lt;font style=&quot;font-size: 14px;&quot;&gt;pass_staff&lt;/font&gt;" style="ellipse;whiteSpace=wrap;html=1;fontSize=14;" vertex="1" parent="1">
          <mxGeometry x="421.14" y="880" width="79.38" height="30" as="geometry" />
        </mxCell>
        <mxCell id="QGnAQyisiJ7Ppkhib9Jt-128" value="&lt;font style=&quot;font-size: 14px;&quot;&gt;pass_auto&lt;/font&gt;" style="ellipse;whiteSpace=wrap;html=1;fontSize=14;" vertex="1" parent="1">
          <mxGeometry x="368.5" y="910" width="79.38" height="30" as="geometry" />
        </mxCell>
      </root>
    </mxGraphModel>
  </diagram>
</mxfile>
